{"title":"Bajatey Raho 2013 DVDscr 320MB MP4 [RXV]","uid":8751633,"size":336618845,"categoryP":"video","categoryS":"movies","magnet":"?xt=urn:btih:50e4d892a85b1efb07c7b3d57ac63038c28ebaee&amp;dn=Bajatey+Raho+2013+DVDscr+320MB+MP4+%5BRXV%5D&amp;tr=udp%3A%2F%2Ftracker.openbittorrent.com%3A80&amp;tr=udp%3A%2F%2Fopen.demonii.com%3A1337&amp;tr=udp%3A%2F%2Ftracker.coppersurfer.tk%3A6969&amp;tr=udp%3A%2F%2Fexodus.desync.com%3A6969","seeders":1,"leechers":0,"uploader":"rohnakzz","files":2,"time":1375046178,"description":"General\nComplete name                            : Bajatey Raho 2013 DVDscr 320MB [RXV]\nFormat                                   : MPEG-4\nFormat profile                           : Base Media / Version 2\nCodec ID                                 : mp42\nFile size                                : 321 MiB\nDuration                                 : 1h 45mn\nOverall bit rate mode                    : Variable\nOverall bit rate                         : 427 Kbps\nEncoded date                             : UTC 2013-07-28 11:57:57\nTagged date                              : UTC 2013-07-28 11:57:57\n\nVideo\nID                                       : 2\nFormat                                   : AVC\nFormat/Info                              : Advanced Video Codec\nFormat profile                           : &lt;a class=&quot;__cf_email__&quot; href=&quot;/cdn-cgi/l/email-protection&quot; data-cfemail=&quot;571f3e303f171b657966&quot;&gt;[email&amp;#160;protected]&lt;/a&gt;&lt;script cf-hash='f9e31' type=&quot;text/javascript&quot;&gt;\n/* &lt;![CDATA[ */!function(){try{var t=&quot;currentScript&quot;in document?document.currentScript:function(){for(var t=document.getElementsByTagName(&quot;script&quot;),e=t.length;e--;)if(t[e].getAttribute(&quot;cf-hash&quot;))return t[e]}();if(t&amp;&amp;t.previousSibling){var e,r,n,i,c=t.previousSibling,a=c.getAttribute(&quot;data-cfemail&quot;);if(a){for(e=&quot;&quot;,r=parseInt(a.substr(0,2),16),n=2;a.length-n;n+=2)i=parseInt(a.substr(n,2),16)^r,e+=String.fromCharCode(i);e=document.createTextNode(e),c.parentNode.replaceChild(e,c)}}}catch(u){}}();/* ]]&gt; */&lt;/script&gt;\nFormat settings, CABAC                   : Yes\nFormat settings, ReFrames                : 4 frames\nCodec ID                                 : avc1\nCodec ID/Info                            : Advanced Video Coding\nDuration                                 : 1h 45mn\nBit rate mode                            : Constant\nBit rate                                 : 350 Kbps\nWidth                                    : 640 pixels\nHeight                                   : 272 pixels\nDisplay aspect ratio                     : 2.35:1\nFrame rate mode                          : Constant\nFrame rate                               : 23.976 fps\nStandard                                 : NTSC\nColor space                              : YUV\nChroma subsampling                       : 4:2:0\nBit depth                                : 8 bits\nScan type                                : Progressive\nBits/(Pixel*Frame)                       : 0.084\nStream size                              : 260 MiB (81%)\nLanguage                                 : English\nEncoded date                             : UTC 2013-07-28 11:57:57\nTagged date                              : UTC 2013-07-28 11:57:57\nColor primaries                          : BT.601 NTSC\nTransfer characteristics                 : BT.601\nMatrix coefficients                      : BT.601\n\nAudio\nID                                       : 1\nFormat                                   : AAC\nFormat/Info                              : Advanced Audio Codec\nFormat profile                           : LC\nCodec ID                                 : 40\nDuration                                 : 1h 45mn\nBit rate mode                            : Variable\nBit rate                                 : 77.6 Kbps\nMaximum bit rate                         : 223 Kbps\nChannel(s)                               : 2 channels\nChannel positions                        : Front: L R\nSampling rate                            : 44.1 KHz\nCompression mode                         : Lossy\nStream size                              : 58.4 MiB (18%)\n\nScreenshots \n\n[img]http://i.imgur.com/tayRjza.png[/img]\n\n[IMG]http://i.imgur.com/fxw5cuL.png[/IMG]\n\n[IMG]http://i.imgur.com/JrcKiaw.png[/IMG]\n\n[IMG]http://i.imgur.com/DiFIbM7.png[/IMG]\n\n[IMG]http://i.imgur.com/qsXvV2S.png[/IMG]\n\n[IMG]http://i.imgur.com/yW3kPMz.png[/IMG]","torrent":{"xt":"urn:btih:50e4d892a85b1efb07c7b3d57ac63038c28ebaee","amp;dn":"Bajatey+Raho+2013+DVDscr+320MB+MP4+%5BRXV%5D","amp;tr":["udp%3A%2F%2Ftracker.openbittorrent.com%3A80","udp%3A%2F%2Fopen.demonii.com%3A1337","udp%3A%2F%2Ftracker.coppersurfer.tk%3A6969","udp%3A%2F%2Fexodus.desync.com%3A6969"],"infoHash":"50e4d892a85b1efb07c7b3d57ac63038c28ebaee","infoHashBuffer":{"type":"Buffer","data":[80,228,216,146,168,91,30,251,7,199,179,213,122,198,48,56,194,142,186,238]},"announce":[],"urlList":[]}}